<svg width="33" height="42" viewBox="0 0 33 42" fill="none" xmlns="http://www.w3.org/2000/svg">
<g clip-path="url(#clip0_62_3)">
<path d="M11 26C11 28.9 13.4 31.3 16.3 31.3C19.2 31.3 21.6 28.9 21.6 26C21.6 23.1 16.3 14.1 16.3 14.1C16.3 14.1 11 23.1 11 26Z" fill="#B1C7DD"/>
<path d="M5.6 0H0.3C0.1 0 0 0.1 0 0.3V41.7C0 41.9 0.1 42 0.3 42H5.6C5.8 42 5.8 41.9 5.8 41.7V0.3C5.8 0.1 5.8 0 5.6 0Z" fill="#B1C7DD"/>
<path d="M32.3 0H27C26.8 0 26.8 0.1 26.8 0.3V41.7C26.8 41.9 26.9 42 27 42H32.3C32.5 42 32.6 41.9 32.6 41.7V0.3C32.6 0.1 32.5 0 32.3 0Z" fill="#B1C7DD"/>
</g>
<defs>
<clipPath id="clip0_62_3">
<rect width="32.6" height="42" fill="white"/>
</clipPath>
</defs>
</svg>
